# xmcd CD database file
#
# Track frame offsets:
#	150
#	15937
#	32317
#	49152
#	71952
#	83022
#	97172
#	117392
#	129827
#	144425
#
# Disc length: 2100 seconds
#
# Revision: 0
# Processed by: cddbd v1.5.1PL0 Copyright (c) Steve Scherf et al.
# Submitted via: CDex 1.51
#
DISCID=7c08320a
DTITLE=Coleman Hawkins - Wrapped Tight
DYEAR=1965
DGENRE=Jazz
TTITLE0=Wrapped Tight
TTITLE1=Intermezzo
TTITLE2=Out Of Nowhere
TTITLE3=Indian Summer
TTITLE4=Red Roses For A Blue Lady
TTITLE5=Marcheta
TTITLE6=Beautiful Girl
TTITLE7=She's Fit
TTITLE8=And I Still Love You
TTITLE9=Bean's Place
EXTD=YEAR: 1965
EXTT0=
EXTT1=
EXTT2=
EXTT3=
EXTT4=
EXTT5=
EXTT6=
EXTT7=
EXTT8=
EXTT9=
PLAYORDER=
